<svg xmlns="http://www.w3.org/2000/svg" viewBox="0 0 500 500"><defs><style>.cls-1{fill:#0a66c2;}.cls-2{fill:#fff;}</style></defs><g id="Layer_1_copy" data-name="Layer 1 copy"><path class="cls-1" d="M40,106.41V480a19.994,19.994,0,0,0,20,20H440a20,20,0,0,0,20-20V106.41ZM250,437.32a150.086,150.086,0,1,1,150-150A150,150,0,0,1,250,437.32Z"/><path class="cls-1" d="M420,0H80A40,40,0,0,0,40,40V76.41H460V40A40,40,0,0,0,420,0ZM80.59,57.9a15,15,0,1,1,15-15A15.005,15.005,0,0,1,80.59,57.9Zm47.62,0a15,15,0,1,1,15-15A15.005,15.005,0,0,1,128.21,57.9Zm47.62,0a15,15,0,1,1,15-15A15,15,0,0,1,175.83,57.9Z"/><path class="cls-2" d="M390.58,234.9A150.086,150.086,0,1,0,400,287.32,150.057,150.057,0,0,0,390.58,234.9ZM250,402.32a115.035,115.035,0,1,1,115-115A115,115,0,0,1,250,402.32Z"/><path class="cls-1" d="M352.38,234.9A115.035,115.035,0,1,0,365,287.32,114.977,114.977,0,0,0,352.38,234.9ZM250,387.32a100,100,0,0,1-100-100c29.37,24.47,69.2,31.61,100,0,29.38-30.16,78.14-43.96,100,0A100,100,0,0,1,250,387.32Z"/><path class="cls-2" d="M350,287.32a100,100,0,0,1-200,0c29.37,24.47,69.2,31.61,100,0C279.38,257.16,328.14,243.36,350,287.32Z"/><rect class="cls-2" x="40" y="76.41" width="420" height="30"/><circle class="cls-2" cx="80.59" cy="42.9" r="15"/><circle class="cls-2" cx="128.21" cy="42.9" r="15"/><circle class="cls-2" cx="175.83" cy="42.9" r="15"/></g></svg>