<?xml version="1.0" encoding="UTF-8"?>
<svg id="Layer_2" data-name="Layer 2" xmlns="http://www.w3.org/2000/svg" viewBox="0 0 100 100">
  <g id="Layer_1_copy" data-name="Layer 1 copy">
    <path d="M50,6c24.26,0,44,19.74,44,44s-19.74,44-44,44S6,74.26,6,50,25.74,6,50,6m0-6C22.39,0,0,22.39,0,50s22.39,50,50,50,50-22.39,50-50S77.61,0,50,0h0Zm5.7,20.55l8.36,4.37,4.56,7.6v12.25l-8.65,9.03c-4.94,.57-7.41,2.44-7.41,5.6s-1.27,4.75-3.8,4.75-3.8-2.75-3.8-8.26,.7-8.17,2.09-8.17h7.5l6.46-5.99v-8.83l-5.79-5.23h-10.16l-6.08,5.32c0,2.85-1.27,4.27-3.8,4.27s-3.8-1.55-3.8-4.65l4.84-7.6,8.55-4.47h10.92Zm-11.97,58.05c0-3.1,1.65-4.66,4.94-4.66s4.84,1.55,4.84,4.66-1.61,4.66-4.84,4.66-4.94-1.55-4.94-4.66Z"/>
  </g>
</svg>